<svg xmlns="http://www.w3.org/2000/svg" width="980" height="420" viewBox="0 0 980 420" role="img">
<rect width="100%" height="100%" fill="#ffffff"/>
<defs><marker id="arrow" markerWidth="8" markerHeight="8" refX="7" refY="4" orient="auto"><path d="M0,0 L8,4 L0,8 z" fill="#374151"/></marker></defs>
<text x="30.0" y="42.0" font-family="Arial, sans-serif" font-size="22" font-weight="700" fill="#1f2937">Data Product Architecture</text>
<rect x="40" y="148" width="175" height="82" rx="6" fill="#eff6ff" stroke="#2563eb" stroke-width="1.5"/>
<text x="54.0" y="178.0" font-family="Arial, sans-serif" font-size="13" font-weight="600" fill="#1f2937">Audited</text>
<text x="54.0" y="198.0" font-family="Arial, sans-serif" font-size="13" font-weight="600" fill="#1f2937">result data</text>
<line x1="219" y1="189.0" x2="233" y2="189.0" stroke="#374151" stroke-width="1.5" marker-end="url(#arrow)"/>
<rect x="241" y="148" width="175" height="82" rx="6" fill="#eff6ff" stroke="#2563eb" stroke-width="1.5"/>
<text x="255.0" y="178.0" font-family="Arial, sans-serif" font-size="13" font-weight="600" fill="#1f2937">Interval</text>
<text x="255.0" y="198.0" font-family="Arial, sans-serif" font-size="13" font-weight="600" fill="#1f2937">products</text>
<line x1="420" y1="189.0" x2="434" y2="189.0" stroke="#374151" stroke-width="1.5" marker-end="url(#arrow)"/>
<rect x="442" y="148" width="175" height="82" rx="6" fill="#eff6ff" stroke="#2563eb" stroke-width="1.5"/>
<text x="456.0" y="178.0" font-family="Arial, sans-serif" font-size="13" font-weight="600" fill="#1f2937">Stress and</text>
<text x="456.0" y="198.0" font-family="Arial, sans-serif" font-size="13" font-weight="600" fill="#1f2937">PULSE sidecars</text>
<line x1="621" y1="189.0" x2="635" y2="189.0" stroke="#374151" stroke-width="1.5" marker-end="url(#arrow)"/>
<rect x="643" y="148" width="175" height="82" rx="6" fill="#eff6ff" stroke="#2563eb" stroke-width="1.5"/>
<text x="657.0" y="178.0" font-family="Arial, sans-serif" font-size="13" font-weight="600" fill="#1f2937">Grouped</text>
<text x="657.0" y="198.0" font-family="Arial, sans-serif" font-size="13" font-weight="600" fill="#1f2937">baselines</text>
<line x1="822" y1="189.0" x2="836" y2="189.0" stroke="#374151" stroke-width="1.5" marker-end="url(#arrow)"/>
<rect x="844" y="148" width="175" height="82" rx="6" fill="#eff6ff" stroke="#2563eb" stroke-width="1.5"/>
<text x="858.0" y="178.0" font-family="Arial, sans-serif" font-size="13" font-weight="600" fill="#1f2937">Claim</text>
<text x="858.0" y="198.0" font-family="Arial, sans-serif" font-size="13" font-weight="600" fill="#1f2937">ledger</text>
<text x="30.0" y="352.0" font-family="Arial, sans-serif" font-size="13" font-weight="400" fill="#1f2937">Source: docs/PAPER_FIGURE_PLAN.md and docs/REPO_STATUS.md.</text>
</svg>
