<svg xmlns="http://www.w3.org/2000/svg" width="980" height="424" viewBox="0 0 980 424" role="img">
<rect width="100%" height="100%" fill="#ffffff"/>
<text x="30.0" y="38.0" font-family="Arial, sans-serif" font-size="22" font-weight="700" fill="#1f2937">Capacity Baseline Ladder on C-rate Holdout</text>
<text x="30.0" y="62.0" font-family="Arial, sans-serif" font-size="13" font-weight="400" fill="#1f2937">Condition-mean MAE; lower is better. Descriptive best rows do not override claim tests.</text>
<line x1="280" y1="74" x2="910" y2="74" stroke="#d1d5db"/>
<line x1="280.0" y1="64" x2="280.0" y2="360" stroke="#6b7280" stroke-dasharray="4 4"/>
<text x="30.0" y="113.0" font-family="Arial, sans-serif" font-size="12" font-weight="400" fill="#1f2937">L0_persistence capacity</text>
<rect x="280.0" y="92.0" width="630.0" height="22" rx="3" fill="#2563eb" opacity="0.86"/>
<text x="860.0" y="109.0" font-family="Arial, sans-serif" font-size="12" font-weight="400" fill="#1f2937">0.3349</text>
<text x="30.0" y="145.0" font-family="Arial, sans-serif" font-size="12" font-weight="400" fill="#1f2937">L0_persistence delta</text>
<rect x="280.0" y="124.0" width="630.0" height="22" rx="3" fill="#2563eb" opacity="0.86"/>
<text x="860.0" y="141.0" font-family="Arial, sans-serif" font-size="12" font-weight="400" fill="#1f2937">0.3349</text>
<text x="30.0" y="177.0" font-family="Arial, sans-serif" font-size="12" font-weight="400" fill="#1f2937">HGB_F4 capacity</text>
<rect x="280.0" y="156.0" width="235.5" height="22" rx="3" fill="#2563eb" opacity="0.86"/>
<text x="523.5" y="173.0" font-family="Arial, sans-serif" font-size="12" font-weight="400" fill="#1f2937">0.1252</text>
<text x="30.0" y="209.0" font-family="Arial, sans-serif" font-size="12" font-weight="400" fill="#1f2937">HGB_F4 delta</text>
<rect x="280.0" y="188.0" width="190.3" height="22" rx="3" fill="#2563eb" opacity="0.86"/>
<text x="478.3" y="205.0" font-family="Arial, sans-serif" font-size="12" font-weight="400" fill="#1f2937">0.1011</text>
<text x="30.0" y="241.0" font-family="Arial, sans-serif" font-size="12" font-weight="400" fill="#1f2937">HGB_stress_features cap.</text>
<rect x="280.0" y="220.0" width="226.9" height="22" rx="3" fill="#2563eb" opacity="0.86"/>
<text x="514.9" y="237.0" font-family="Arial, sans-serif" font-size="12" font-weight="400" fill="#1f2937">0.1206</text>
<text x="30.0" y="273.0" font-family="Arial, sans-serif" font-size="12" font-weight="400" fill="#1f2937">HGB_stress_features del.</text>
<rect x="280.0" y="252.0" width="190.3" height="22" rx="3" fill="#2563eb" opacity="0.86"/>
<text x="478.3" y="269.0" font-family="Arial, sans-serif" font-size="12" font-weight="400" fill="#1f2937">0.1011</text>
<text x="30.0" y="305.0" font-family="Arial, sans-serif" font-size="12" font-weight="400" fill="#1f2937">prior_PULSE_capacity ca.</text>
<rect x="280.0" y="284.0" width="226.2" height="22" rx="3" fill="#2563eb" opacity="0.86"/>
<text x="514.2" y="301.0" font-family="Arial, sans-serif" font-size="12" font-weight="400" fill="#1f2937">0.1202</text>
<text x="30.0" y="337.0" font-family="Arial, sans-serif" font-size="12" font-weight="400" fill="#1f2937">prior_PULSE_capacity de.</text>
<rect x="280.0" y="316.0" width="183.9" height="22" rx="3" fill="#2563eb" opacity="0.86"/>
<text x="471.9" y="333.0" font-family="Arial, sans-serif" font-size="12" font-weight="400" fill="#1f2937">0.09773</text>
<text x="280.0" y="396.0" font-family="Arial, sans-serif" font-size="12" font-weight="400" fill="#1f2937">Condition-mean MAE</text>
</svg>
