<svg xmlns="http://www.w3.org/2000/svg" width="980" height="576" viewBox="0 0 980 576" role="img">
<rect width="100%" height="100%" fill="#ffffff"/>
<text x="30.0" y="38.0" font-family="Arial, sans-serif" font-size="22" font-weight="700" fill="#1f2937">Stress-Feature C-rate Decision</text>
<text x="30.0" y="62.0" font-family="Arial, sans-serif" font-size="13" font-weight="400" fill="#1f2937">Gain versus F4 on C-rate holdout; positive is better.</text>
<line x1="280" y1="74" x2="910" y2="74" stroke="#d1d5db"/>
<line x1="864.5" y1="64" x2="864.5" y2="488" stroke="#6b7280" stroke-dasharray="4 4"/>
<text x="30.0" y="113.0" font-family="Arial, sans-serif" font-size="12" font-weight="400" fill="#1f2937">capacity F5_log_age_his.</text>
<rect x="864.5" y="92.0" width="45.5" height="22" rx="3" fill="#0f766e" opacity="0.86"/>
<text x="860.0" y="109.0" font-family="Arial, sans-serif" font-size="12" font-weight="400" fill="#1f2937">0.004581</text>
<text x="30.0" y="145.0" font-family="Arial, sans-serif" font-size="12" font-weight="400" fill="#1f2937">capacity F6_coupled_str.</text>
<rect x="864.5" y="124.0" width="12.8" height="22" rx="3" fill="#0f766e" opacity="0.86"/>
<text x="860.0" y="141.0" font-family="Arial, sans-serif" font-size="12" font-weight="400" fill="#1f2937">0.001287</text>
<text x="30.0" y="177.0" font-family="Arial, sans-serif" font-size="12" font-weight="400" fill="#1f2937">capacity F7_c_rate_focu.</text>
<rect x="605.5" y="156.0" width="258.9" height="22" rx="3" fill="#b91c1c" opacity="0.86"/>
<text x="860.0" y="173.0" font-family="Arial, sans-serif" font-size="12" font-weight="400" fill="#1f2937">-0.02605</text>
<text x="30.0" y="209.0" font-family="Arial, sans-serif" font-size="12" font-weight="400" fill="#1f2937">capacity F8_timestamp_w.</text>
<rect x="864.5" y="188.0" width="27.3" height="22" rx="3" fill="#0f766e" opacity="0.86"/>
<text x="860.0" y="205.0" font-family="Arial, sans-serif" font-size="12" font-weight="400" fill="#1f2937">0.002744</text>
<text x="30.0" y="241.0" font-family="Arial, sans-serif" font-size="12" font-weight="400" fill="#1f2937">capacity F9_event_segme.</text>
<rect x="711.1" y="220.0" width="153.3" height="22" rx="3" fill="#b91c1c" opacity="0.86"/>
<text x="860.0" y="237.0" font-family="Arial, sans-serif" font-size="12" font-weight="400" fill="#1f2937">-0.01542</text>
<text x="30.0" y="273.0" font-family="Arial, sans-serif" font-size="12" font-weight="400" fill="#1f2937">capacity F10_c_rate_v1_1</text>
<rect x="704.9" y="252.0" width="159.5" height="22" rx="3" fill="#b91c1c" opacity="0.86"/>
<text x="860.0" y="269.0" font-family="Arial, sans-serif" font-size="12" font-weight="400" fill="#1f2937">-0.01605</text>
<text x="30.0" y="305.0" font-family="Arial, sans-serif" font-size="12" font-weight="400" fill="#1f2937">delta F5_log_age_histog.</text>
<rect x="790.3" y="284.0" width="74.2" height="22" rx="3" fill="#b91c1c" opacity="0.86"/>
<text x="860.0" y="301.0" font-family="Arial, sans-serif" font-size="12" font-weight="400" fill="#1f2937">-0.007459</text>
<text x="30.0" y="337.0" font-family="Arial, sans-serif" font-size="12" font-weight="400" fill="#1f2937">delta F6_coupled_stress</text>
<rect x="850.5" y="316.0" width="14.0" height="22" rx="3" fill="#b91c1c" opacity="0.86"/>
<text x="860.0" y="333.0" font-family="Arial, sans-serif" font-size="12" font-weight="400" fill="#1f2937">-0.001409</text>
<text x="30.0" y="369.0" font-family="Arial, sans-serif" font-size="12" font-weight="400" fill="#1f2937">delta F7_c_rate_focused</text>
<rect x="280.0" y="348.0" width="584.5" height="22" rx="3" fill="#b91c1c" opacity="0.86"/>
<text x="860.0" y="365.0" font-family="Arial, sans-serif" font-size="12" font-weight="400" fill="#1f2937">-0.05879</text>
<text x="30.0" y="401.0" font-family="Arial, sans-serif" font-size="12" font-weight="400" fill="#1f2937">delta F8_timestamp_weig.</text>
<rect x="850.7" y="380.0" width="13.7" height="22" rx="3" fill="#b91c1c" opacity="0.86"/>
<text x="860.0" y="397.0" font-family="Arial, sans-serif" font-size="12" font-weight="400" fill="#1f2937">-0.001383</text>
<text x="30.0" y="433.0" font-family="Arial, sans-serif" font-size="12" font-weight="400" fill="#1f2937">delta F9_event_segmente.</text>
<rect x="486.2" y="412.0" width="378.3" height="22" rx="3" fill="#b91c1c" opacity="0.86"/>
<text x="860.0" y="429.0" font-family="Arial, sans-serif" font-size="12" font-weight="400" fill="#1f2937">-0.03805</text>
<text x="30.0" y="465.0" font-family="Arial, sans-serif" font-size="12" font-weight="400" fill="#1f2937">delta F10_c_rate_v1_1</text>
<rect x="328.6" y="444.0" width="535.8" height="22" rx="3" fill="#b91c1c" opacity="0.86"/>
<text x="860.0" y="461.0" font-family="Arial, sans-serif" font-size="12" font-weight="400" fill="#1f2937">-0.0539</text>
<text x="280.0" y="548.0" font-family="Arial, sans-serif" font-size="12" font-weight="400" fill="#1f2937">Condition-mean MAE gain versus F4</text>
</svg>
