<svg xmlns="http://www.w3.org/2000/svg" width="980" height="500" viewBox="0 0 980 500" role="img">
<rect width="100%" height="100%" fill="#ffffff"/>
<text x="30.0" y="38.0" font-family="Arial, sans-serif" font-size="22" font-weight="700" fill="#1f2937">Prior PULSE Versus Strongest Non-PULSE</text>
<text x="30.0" y="62.0" font-family="Arial, sans-serif" font-size="13" font-weight="400" fill="#1f2937">Mean paired gain by split; positive favors prior PULSE.</text>
<line x1="280" y1="74" x2="910" y2="74" stroke="#d1d5db"/>
<line x1="819.6" y1="64" x2="819.6" y2="424" stroke="#6b7280" stroke-dasharray="4 4"/>
<text x="30.0" y="113.0" font-family="Arial, sans-serif" font-size="12" font-weight="400" fill="#1f2937">capacity c_rate</text>
<rect x="819.6" y="92.0" width="90.4" height="22" rx="3" fill="#0f766e" opacity="0.86"/>
<text x="860.0" y="109.0" font-family="Arial, sans-serif" font-size="12" font-weight="400" fill="#1f2937">0.0003926</text>
<text x="30.0" y="145.0" font-family="Arial, sans-serif" font-size="12" font-weight="400" fill="#1f2937">capacity condition</text>
<rect x="736.2" y="124.0" width="83.4" height="22" rx="3" fill="#b91c1c" opacity="0.86"/>
<text x="827.6" y="141.0" font-family="Arial, sans-serif" font-size="12" font-weight="400" fill="#1f2937">-0.0003625</text>
<text x="30.0" y="177.0" font-family="Arial, sans-serif" font-size="12" font-weight="400" fill="#1f2937">capacity profile</text>
<rect x="659.1" y="156.0" width="160.6" height="22" rx="3" fill="#b91c1c" opacity="0.86"/>
<text x="827.6" y="173.0" font-family="Arial, sans-serif" font-size="12" font-weight="400" fill="#1f2937">-0.0006976</text>
<text x="30.0" y="209.0" font-family="Arial, sans-serif" font-size="12" font-weight="400" fill="#1f2937">capacity temperature</text>
<rect x="646.3" y="188.0" width="173.3" height="22" rx="3" fill="#b91c1c" opacity="0.86"/>
<text x="827.6" y="205.0" font-family="Arial, sans-serif" font-size="12" font-weight="400" fill="#1f2937">-0.000753</text>
<text x="30.0" y="241.0" font-family="Arial, sans-serif" font-size="12" font-weight="400" fill="#1f2937">capacity voltage_window</text>
<rect x="618.5" y="220.0" width="201.1" height="22" rx="3" fill="#b91c1c" opacity="0.86"/>
<text x="827.6" y="237.0" font-family="Arial, sans-serif" font-size="12" font-weight="400" fill="#1f2937">-0.0008737</text>
<text x="30.0" y="273.0" font-family="Arial, sans-serif" font-size="12" font-weight="400" fill="#1f2937">delta c_rate</text>
<rect x="280.0" y="252.0" width="539.6" height="22" rx="3" fill="#b91c1c" opacity="0.86"/>
<text x="827.6" y="269.0" font-family="Arial, sans-serif" font-size="12" font-weight="400" fill="#1f2937">-0.002344</text>
<text x="30.0" y="305.0" font-family="Arial, sans-serif" font-size="12" font-weight="400" fill="#1f2937">delta condition</text>
<rect x="571.0" y="284.0" width="248.7" height="22" rx="3" fill="#b91c1c" opacity="0.86"/>
<text x="827.6" y="301.0" font-family="Arial, sans-serif" font-size="12" font-weight="400" fill="#1f2937">-0.00108</text>
<text x="30.0" y="337.0" font-family="Arial, sans-serif" font-size="12" font-weight="400" fill="#1f2937">delta profile</text>
<rect x="819.6" y="316.0" width="6.9" height="22" rx="3" fill="#0f766e" opacity="0.86"/>
<text x="834.6" y="333.0" font-family="Arial, sans-serif" font-size="12" font-weight="400" fill="#1f2937">3.016e-05</text>
<text x="30.0" y="369.0" font-family="Arial, sans-serif" font-size="12" font-weight="400" fill="#1f2937">delta temperature</text>
<rect x="661.2" y="348.0" width="158.5" height="22" rx="3" fill="#b91c1c" opacity="0.86"/>
<text x="827.6" y="365.0" font-family="Arial, sans-serif" font-size="12" font-weight="400" fill="#1f2937">-0.0006885</text>
<text x="30.0" y="401.0" font-family="Arial, sans-serif" font-size="12" font-weight="400" fill="#1f2937">delta voltage_window</text>
<rect x="785.3" y="380.0" width="34.3" height="22" rx="3" fill="#b91c1c" opacity="0.86"/>
<text x="827.6" y="397.0" font-family="Arial, sans-serif" font-size="12" font-weight="400" fill="#1f2937">-0.0001491</text>
<text x="280.0" y="472.0" font-family="Arial, sans-serif" font-size="12" font-weight="400" fill="#1f2937">Mean condition-level gain</text>
</svg>
